
<svg preserveAspectRatio="xMidYMid meet" viewBox="146.88000000000002 356.40000000000003 738.72 222.48" xmlns="http://www.w3.org/2000/svg" version="1.0" style="max-height: 500px" width="738.72" height="222.48">
<metadata>
Created by potrace 1.16, written by Peter Selinger 2001-2019
</metadata>
<g stroke="none" fill="#40444d" transform="translate(0.000000,1080.000000) scale(0.100000,-0.100000)">
<path d="M4155 7100 c-214 -5 -222 -6 -290 -34 -174 -72 -283 -184 -351 -361&#10;-24 -63 -27 -83 -27 -195 0 -117 2 -130 33 -208 68 -175 202 -304 380 -364 64&#10;-22 76 -23 664 -26 l599 -3 -6 45 c-9 66 -71 180 -130 244 -93 97 -225 164&#10;-359 182 -40 5 -200 10 -355 10 l-283 0 -30 28 c-66 59 -47 171 34 202 19 7&#10;672 10 2037 10 l2009 0 20 -32 c17 -27 20 -47 18 -108 l-3 -75 -480 -5 -480&#10;-5 -51 -27 c-64 -34 -129 -108 -150 -170 -22 -66 -21 -498 2 -595 14 -62 51&#10;-147 77 -180 67 -84 169 -150 273 -178 52 -14 358 -34 459 -29 17 0 238 2 493&#10;2 l462 2 0 714 c0 614 -2 724 -16 782 -24 104 -61 171 -134 245 -80 79 -165&#10;118 -275 126 -98 6 -3871 9 -4140 3z m3960 -1235 c0 -196 -12 -205 -292 -205&#10;-159 0 -193 3 -223 18 -55 27 -70 69 -70 193 0 58 3 109 7 112 4 4 135 6 292&#10;5 l286 -3 0 -120z"/>
<path d="M1990 7093 c-35 -6 -140 -44 -170 -62 -93 -57 -170 -155 -207 -264&#10;l-28 -82 -3 -489 c-2 -322 1 -513 8 -560 23 -148 121 -290 242 -348 114 -55&#10;57 -53 1493 -53 1251 0 1334 1 1401 18 118 31 231 103 311 201 47 58 113 188&#10;113 224 0 13 4 21 8 18 5 -3 6 -98 4 -212 -2 -113 -1 -217 2 -230 l6 -24 564&#10;0 c638 0 670 3 785 66 94 53 186 130 228 193 224 334 88 741 -291 868 l-81 27&#10;-598 4 -599 3 7 -33 c12 -60 71 -172 124 -236 63 -75 164 -144 265 -180 70&#10;-25 77 -26 406 -30 355 -4 381 -7 395 -53 12 -38 -4 -86 -41 -118 l-35 -31&#10;-2043 0 -2043 0 -17 33 c-13 24 -17 50 -14 107 l3 75 480 5 480 5 50 27 c60&#10;32 105 77 137 138 22 43 23 55 26 298 3 225 1 262 -17 330 -47 184 -171 309&#10;-356 357 -49 12 -135 15 -515 14 -250 -1 -466 -4 -480 -6z m721 -436 c41 -28&#10;49 -58 49 -187 l0 -120 -290 0 -290 0 0 110 c0 115 11 161 46 192 28 24 50 26&#10;264 25 168 -2 199 -4 221 -20z"/>
</g>
</svg>